# xmcd CD database file
#
# Track frame offsets:
#	150
#	1690
#	3064
#	4227
#	9377
#	27819
#	42855
#	47825
#	53660
#	58922
#	62285
#	66075
#	88077
#	103037
#	105625
#	107754
#	111830
#	116647
#	121742
#	122737
#	124200
#	132302
#	136390
#	137592
#	138640
#	139677
#	141342
#	142490
#	145465
#	148505
#	149460
#	151455
#	156065
#	160702
#	164490
#	166617
#	168655
#	172562
#	176412
#	179322
#	182177
#	183517
#	184820
#	187820
#	188930
#	191434
#	194492
#	195602
#	198027
#	199177
#	200370
#	201740
#	203832
#	205205
#	209332
#	218295
#	227652
#	230675
#	240980
#	247410
#
# Disc length: 3365 seconds
#
# Revision: 0
# Processed by: cddbd v1.5.2PL0 Copyright (c) Steve Scherf et al.
# Submitted via: CDex 1.51
#
DISCID=720d233c
DTITLE=Axel Kemper-Moll - Jazz- und Pop-Harmonielehre
DYEAR=1999
DGENRE=Jazz
TTITLE0=sus4 sus2 Kirchenschluss
TTITLE1=sus4 sus2 Quartenakkorde mittelalterlich
TTITLE2=Chicks lick
TTITLE3=Father and Son
TTITLE4=PA zu II V I-Verbindung Dur 1. Kette
TTITLE5=PA zu II V I-Verbindung Dur 2. Kette
TTITLE6=Popballanden Lefthandpattern
TTITLE7=The way it is LH Patt Elton John Stil
TTITLE8=Doubletime- Pop- House- Hip Hop- Groove-Pattern
TTITLE9=Jerusalem LH-Patt. im Keith Jarret Stil
TTITLE10=Bluespattern durch die II V Ier
TTITLE11=PA zu II V I-Verbindung Moll 1. Kette
TTITLE12=PA zu II V I-verbindung Moll 2. Kette
TTITLE13=Rockbegleitpattern
TTITLE14=Rockbegleitpattern mit Drop 2&4 Voicings
TTITLE15=Introlude The way it is
TTITLE16=How High The Moon
TTITLE17=Beautiful Love
TTITLE18=Lautstärke jeder Note and Ghostnotes
TTITLE19=Notenlängen+Ghostnotes
TTITLE20=Swingrhythmus-PA
TTITLE21=Swingphrasierung triolisch&breiter+laidback phrasierte Achtel
TTITLE22=Vorschlag
TTITLE23=Glissandi
TTITLE24=Arpeggios
TTITLE25=Triller und Tremoli
TTITLE26=Verkürzung eines Motivs
TTITLE27=Arbeit mit Sekunden
TTITLE28=Sequenzierung mit Terzen&Sekunden
TTITLE29=Sequenzierung mit Quarten&Sekunden
TTITLE30=Sequenzierung mit Sexten&Sekunden
TTITLE31=A Moll Skalenbrechung
TTITLE32=3 über 4
TTITLE33=6 über 4
TTITLE34=4 über 3
TTITLE35=Doubletimespiel
TTITLE36=7über4 mit 3über4 Betonung
TTITLE37=5über4 mit 3über4 Betonung
TTITLE38=zwei links drei rechts
TTITLE39=Ausschnitt Klaviersolo
TTITLE40=Durchgangsakkorde1
TTITLE41=Durchgangsakkorde2
TTITLE42=Durchgangsakkorde3
TTITLE43=V7/7 -> I/3
TTITLE44=All at once
TTITLE45=Waltz for Debbie
TTITLE46=Reharm Kadenzen1
TTITLE47=Reharm Kadenzen2
TTITLE48=Reharm Kadenzen3
TTITLE49=Reharm Kadenzen4
TTITLE50=Reharm Kadenzen5
TTITLE51=Reharm Kadenzen6
TTITLE52=Reharm Kadenzen7
TTITLE53=Come on John Ballade
TTITLE54=Come on John Piano Trio
TTITLE55=Come on John PA
TTITLE56=Walkingbass How high the moon
TTITLE57=Jerusalem
TTITLE58=Sommerrestabendwindwalzer
TTITLE59=Sommerrestabendwindwalzer Variation
EXTD=YEAR: 1999
EXTT0=
EXTT1=
EXTT2=
EXTT3=
EXTT4=
EXTT5=
EXTT6=
EXTT7=
EXTT8=
EXTT9=
EXTT10=
EXTT11=
EXTT12=
EXTT13=
EXTT14=
EXTT15=
EXTT16=
EXTT17=
EXTT18=
EXTT19=
EXTT20=
EXTT21=
EXTT22=
EXTT23=
EXTT24=
EXTT25=
EXTT26=
EXTT27=
EXTT28=
EXTT29=
EXTT30=
EXTT31=
EXTT32=
EXTT33=
EXTT34=
EXTT35=
EXTT36=
EXTT37=
EXTT38=
EXTT39=
EXTT40=
EXTT41=
EXTT42=
EXTT43=
EXTT44=
EXTT45=
EXTT46=
EXTT47=
EXTT48=
EXTT49=
EXTT50=
EXTT51=
EXTT52=
EXTT53=
EXTT54=
EXTT55=
EXTT56=
EXTT57=
EXTT58=
EXTT59=
PLAYORDER=
